<?xml version="1.0" encoding="UTF-8" standalone="no"?>
<svg width="161px" height="40px" viewBox="0 0 161 40" version="1.1" xmlns="http://www.w3.org/2000/svg" xmlns:xlink="http://www.w3.org/1999/xlink">
    <!-- Generator: Sketch 3.7.2 (28276) - http://www.bohemiancoding.com/sketch -->
    <title>logo</title>
    <desc>Created with Sketch.</desc>
    <defs>
        <polygon id="path-1" points="0 38.506416 160.505333 38.506416 160.505333 0.780156 0 0.780156"></polygon>
    </defs>
    <g id="Symbols" stroke="none" stroke-width="1" fill="none" fill-rule="evenodd">
        <g id="logo">
            <path d="M50.9452222,13.97682 C52.9985556,13.97682 54.7158889,14.83794 56.0964444,16.56096 L58.8124444,13.47216 C56.6471111,11.01906 53.9591111,9.7929 50.7492222,9.7929 C47.8737778,9.7929 45.4432222,10.76712 43.4544444,12.71322 C41.4664444,14.66088 40.4724444,17.08902 40.4724444,20.00076 C40.4724444,22.91094 41.4477778,25.32114 43.3992222,27.23058 C45.3491111,29.14002 47.8325556,30.09474 50.8464444,30.09474 C53.8618889,30.09474 56.4791111,28.84128 58.7012222,26.33202 L55.9004444,23.43978 C54.5377778,25.1433 52.7831111,25.99506 50.6372222,25.99506 C49.0692222,25.99506 47.7337778,25.44282 46.6324444,24.33834 C45.5311111,23.23386 44.9812222,21.76902 44.9812222,19.94382 C44.9812222,18.1194 45.5645556,16.66782 46.7312222,15.59142 C47.8971111,14.51502 49.3025556,13.97682 50.9452222,13.97682 L50.9452222,13.97682 Z" id="Fill-2" fill="#2C3039"></path>
            <polygon id="Fill-1" fill="#2C3039" points="30.5049889 13.97682 34.2289889 13.97682 34.2289889 29.8701 38.4289889 29.8701 38.4289889 10.24218 30.5049889 10.24218"></polygon>
            <mask id="mask-2" fill="white">
                <use xlink:href="#path-1"></use>
            </mask>
            <g id="Clip-5"></g>
            <polygon id="Fill-4" fill="#2C3039" mask="url(#mask-2)" points="60.0444444 29.870256 64.2444444 29.870256 64.2444444 9.034896 60.0444444 9.034896"></polygon>
            <path d="M69.2002111,8.61354 C68.5087667,8.61354 67.9262111,8.853 67.4502111,9.32958 C66.9749889,9.80694 66.7362111,10.39194 66.7362111,11.08458 C66.7362111,11.778 66.9749889,12.363 67.4502111,12.83958 C67.9262111,13.31694 68.5087667,13.55562 69.2002111,13.55562 C69.8908778,13.55562 70.4749889,13.31694 70.9502111,12.83958 C71.4262111,12.363 71.6642111,11.778 71.6642111,11.08458 C71.6642111,10.39194 71.4262111,9.80694 70.9502111,9.32958 C70.4749889,8.853 69.8908778,8.61354 69.2002111,8.61354" id="Fill-6" fill="#2C3039" mask="url(#mask-2)"></path>
            <polygon id="Fill-7" fill="#2C3039" mask="url(#mask-2)" points="67.1004444 29.870256 71.2996667 29.870256 71.2996667 14.763216 67.1004444 14.763216"></polygon>
            <path d="M80.8205222,26.360022 C79.7565222,26.360022 78.8270778,26.005122 78.0345222,25.292982 C77.2404111,24.582402 76.8445222,23.584782 76.8445222,22.302462 C76.8445222,21.020142 77.2404111,20.018622 78.0345222,19.297902 C78.8270778,18.577182 79.7744111,18.217602 80.8757444,18.217602 C81.5671889,18.217602 82.2625222,18.376722 82.9625222,18.694182 C83.6617444,19.013202 84.2544111,19.461702 84.7405222,20.042022 L86.9245222,17.178642 C86.0845222,16.298802 85.1084111,15.633462 83.9985222,15.184182 C82.8870778,14.735682 81.7904111,14.511042 80.7085222,14.511042 C78.5424111,14.511042 76.6710778,15.235662 75.0945222,16.687242 C73.5164111,18.137262 72.7285222,20.018622 72.7285222,22.330542 C72.7285222,24.643242 73.5078556,26.514462 75.0665222,27.946542 C76.6244111,29.378622 78.5338556,30.094662 80.7925222,30.094662 C83.0504111,30.094662 85.1504111,29.083782 87.0917444,27.062022 L84.6005222,24.254022 C83.4805222,25.658802 82.2205222,26.360022 80.8205222,26.360022" id="Fill-8" fill="#2C3039" mask="url(#mask-2)"></path>
            <polygon id="Fill-9" fill="#2C3039" mask="url(#mask-2)" points="102.939356 14.735448 97.6473556 14.735448 92.9721333 19.732908 92.9721333 9.034428 88.7721333 9.034428 88.7721333 29.869788 92.9721333 29.869788 92.9721333 25.517388 94.3441333 24.085308 98.1801333 29.869788 103.164133 29.869788 97.2001333 20.856888"></polygon>
            <polygon id="Fill-10" fill="#00D097" mask="url(#mask-2)" points="116.322578 10.242102 100.867356 10.242102 100.867356 14.032902 106.412133 14.032902 106.412133 29.870022 110.779356 29.870022 110.779356 14.032902 116.322578 14.032902"></polygon>
            <path d="M121.545278,15.184104 C120.7325,15.615444 120.055056,16.139604 119.5145,16.757364 L119.5145,14.762904 L115.313722,14.762904 L115.313722,29.869944 L119.5145,29.869944 L119.5145,23.327304 C119.5145,21.867144 119.8225,20.692464 120.437722,19.804044 C121.0545,18.914844 121.987056,18.469464 123.239278,18.469464 L124.0505,18.469464 L124.023278,14.510964 C123.1825,14.528904 122.3565,14.753544 121.545278,15.184104" id="Fill-11" fill="#00D097" mask="url(#mask-2)"></path>
            <polygon id="Fill-12" fill="#00D097" mask="url(#mask-2)" points="125.702889 29.870256 129.902889 29.870256 129.902889 14.763216 125.702889 14.763216"></polygon>
            <path d="M127.802422,8.61354 C127.112533,8.61354 126.5292,8.853 126.052422,9.32958 C125.5772,9.80694 125.338422,10.39194 125.338422,11.08458 C125.338422,11.778 125.5772,12.363 126.052422,12.83958 C126.5292,13.31694 127.112533,13.55562 127.802422,13.55562 C128.493867,13.55562 129.0772,13.31694 129.552422,12.83958 C130.0292,12.363 130.266422,11.778 130.266422,11.08458 C130.266422,10.39194 130.0292,9.80694 129.552422,9.32958 C129.0772,8.853 128.493867,8.61354 127.802422,8.61354" id="Fill-13" fill="#00D097" mask="url(#mask-2)"></path>
            <path d="M142.390267,25.33557 C141.662267,26.11245 140.813711,26.50089 139.843044,26.50089 C138.872378,26.50089 138.0456,26.11245 137.365044,25.33557 C136.682933,24.55869 136.343044,23.55717 136.343044,22.33023 C136.343044,21.10485 136.682933,20.08461 137.365044,19.27029 C138.0456,18.45597 138.880933,18.04881 139.870267,18.04881 C140.858822,18.04881 141.708156,18.46065 142.419044,19.28433 C143.126822,20.10801 143.482267,21.12747 143.482267,22.34505 C143.482267,23.56263 143.118267,24.55869 142.390267,25.33557 M140.962267,14.51073 C139.2076,14.51073 137.687044,15.15657 136.399044,16.44747 L136.399044,14.76267 L132.198267,14.76267 L132.198267,35.31801 L136.399044,35.31801 L136.399044,27.87681 C137.518267,29.35569 138.998378,30.09513 140.836267,30.09513 C142.674156,30.09513 144.280267,29.34711 145.651489,27.84873 C147.025044,26.35113 147.710267,24.48849 147.710267,22.26081 C147.710267,20.03313 147.025044,18.18453 145.651489,16.71423 C144.280267,15.24471 142.716933,14.51073 140.962267,14.51073" id="Fill-14" fill="#00D097" mask="url(#mask-2)"></path>
            <path d="M158.9378,21.979386 C158.378578,21.642426 157.897133,21.395166 157.4958,21.236046 C157.095244,21.076926 156.4178,20.847606 155.466578,20.547306 C154.514578,20.248566 153.832467,19.985706 153.4218,19.761066 C153.011911,19.536426 152.806578,19.228326 152.806578,18.835206 C152.806578,18.123846 153.453689,17.768166 154.752578,17.768166 C156.049911,17.768166 157.351911,18.217446 158.658578,19.115226 L160.2258,16.308006 C158.453244,15.109146 156.679133,14.510886 154.9058,14.510886 C153.131689,14.510886 151.6858,14.950026 150.5658,15.829866 C149.446578,16.710486 148.8858,17.847726 148.8858,19.241586 C148.8858,20.636226 149.455911,21.690006 150.593022,22.400586 C151.1538,22.757046 151.653911,23.028486 152.092578,23.214906 C152.530467,23.402106 153.165133,23.626746 153.9958,23.888826 C154.827244,24.151686 155.460356,24.432486 155.8998,24.731226 C156.338467,25.031526 156.557022,25.359126 156.557022,25.714026 C156.557022,26.070486 156.399133,26.355186 156.0818,26.571246 C155.764467,26.786526 155.335911,26.894166 154.7938,26.894166 C153.021244,26.894166 151.3498,26.285766 149.782578,25.068966 L147.9338,27.708486 C148.904467,28.494726 149.996467,29.088306 151.2098,29.491566 C152.423911,29.893266 153.590578,30.094506 154.7098,30.094506 C156.390578,30.094506 157.7758,29.645226 158.8678,28.747446 C159.9598,27.848106 160.5058,26.654706 160.5058,25.167246 C160.5058,23.679006 159.983133,22.615866 158.9378,21.979386" id="Fill-15" fill="#00D097" mask="url(#mask-2)"></path>
            <path d="M27.7865778,28.057926 C27.7679111,28.076646 27.7492444,28.097706 27.7321333,28.117986 C27.6481333,28.221726 25.6710222,30.677946 24.6684667,32.656026 C23.8129111,34.341606 23.2871333,35.565426 23.1222444,35.960106 C22.9215778,36.144966 22.6478,36.166806 22.1313556,36.166806 L14.9275778,36.166806 C14.4111333,35.581026 13.0438,33.753486 13.0554667,30.837846 C13.0616889,29.167086 13.0554667,28.398786 13.0554667,28.398786 L13.0554667,24.226566 C13.0554667,24.193806 13.0686889,24.160266 13.0896889,24.142326 C13.4288,23.852946 13.7811333,23.771826 14.0844667,23.910666 C14.3426889,24.030006 14.5091333,24.290526 14.5091333,24.573666 L14.5091333,27.456546 C14.5091333,27.887106 14.8568,28.236546 15.2869111,28.236546 C15.7162444,28.236546 16.0646889,27.887106 16.0646889,27.456546 L16.0646889,23.863866 C16.0646889,23.461386 16.3905778,23.134566 16.7911333,23.134566 C17.1924667,23.134566 17.5183556,23.461386 17.5183556,23.863866 L17.5183556,26.624286 C17.5183556,27.055626 17.8660222,27.404286 18.2961333,27.404286 C18.7262444,27.404286 19.0739111,27.055626 19.0739111,26.624286 L19.0739111,25.962066 C19.0746889,25.946466 19.0832444,25.933206 19.0832444,25.916826 L19.0832444,23.157186 C19.0832444,22.754706 19.4091333,22.427886 19.8096889,22.427886 C20.2110222,22.427886 20.5369111,22.754706 20.5369111,23.157186 L20.5369111,25.916826 C20.5369111,26.348166 20.8845778,26.696826 21.3146889,26.696826 C21.7440222,26.696826 22.0924667,26.348166 22.0924667,25.916826 L22.0924667,25.294386 C22.0979111,25.256946 22.1064667,25.219506 22.1064667,25.181286 L22.1064667,18.450666 C22.1064667,18.048186 22.4323556,17.721366 22.8336889,17.721366 C23.2334667,17.721366 23.5593556,18.048186 23.5593556,18.450666 L23.5593556,28.117986 C23.5593556,28.424526 23.7382444,28.702206 24.0159111,28.828566 C24.2951333,28.953366 24.6194667,28.906566 24.8504667,28.704546 L26.7583556,27.027546 C27.0406889,26.742066 27.5042444,26.742066 27.7865778,27.027546 C28.0696889,27.311466 28.0696889,27.774006 27.7865778,28.057926 L27.7865778,28.057926 Z M10.7221333,24.226566 L10.7221333,28.412046 C10.7221333,28.419066 10.7275778,29.121066 10.7221333,30.619446 L4.39257778,30.619446 C3.68635556,30.619446 3.1108,30.043026 3.1108,29.334786 L3.1108,11.390106 L21.7766889,11.390106 L21.7766889,15.581046 C20.6108,16.014726 19.7731333,17.131686 19.7731333,18.450666 L19.7731333,20.087886 C18.9704667,20.098026 18.2416889,20.418606 17.6995778,20.935746 C17.4118,20.844486 17.1069111,20.794566 16.7911333,20.794566 C15.9752444,20.794566 15.2332444,21.116706 14.6841333,21.639306 C13.6411333,21.313266 12.5040222,21.569106 11.5753556,22.362366 C11.0332444,22.826466 10.7221333,23.505846 10.7221333,24.226566 L10.7221333,24.226566 Z M4.39257778,8.911266 L20.4956889,8.911266 C21.0743556,8.911266 21.5589111,9.300486 21.7175778,9.830106 L3.17068889,9.830106 C3.32935556,9.300486 3.81391111,8.911266 4.39257778,8.911266 L4.39257778,8.911266 Z M9.04524444,5.791266 L15.5358,5.791266 L15.5358,3.899766 L9.04524444,3.899766 L9.04524444,5.791266 Z M29.4354667,25.371606 C28.4788,24.412986 27.0399111,24.223446 25.8926889,24.802206 L25.8926889,18.450666 C25.8926889,17.553666 25.5014667,16.753386 24.8878,16.191786 L24.8878,10.197486 C24.8878,7.767786 22.9176889,5.791266 20.4956889,5.791266 L18.6469111,5.791266 L18.6469111,3.176706 C18.6469111,1.854606 17.4856889,0.779766 16.0584667,0.779766 L8.52257778,0.779766 C7.09535556,0.779766 5.93413333,1.854606 5.93413333,3.176706 L5.93413333,5.791266 L4.39257778,5.791266 C1.97057778,5.791266 -0.000311111111,7.767786 -0.000311111111,10.197486 L-0.000311111111,29.334786 C-0.000311111111,31.601466 1.71702222,33.472686 3.91502222,33.712146 C3.91346667,33.736326 3.90802222,33.758946 3.90802222,33.783906 L3.90802222,34.167666 C3.90802222,34.806486 4.42368889,35.323626 5.06068889,35.323626 L7.8498,35.323626 C8.4868,35.323626 9.00246667,34.806486 9.00246667,34.167666 L9.00246667,33.783906 C9.00246667,33.768306 8.99857778,33.754266 8.99857778,33.739446 L11.1016889,33.739446 C11.8491333,36.496746 13.4552444,38.013846 13.5439111,38.095746 L13.9903556,38.506806 L22.1313556,38.506806 C22.8041333,38.506806 24.0555778,38.506806 24.9842444,37.383606 L25.1390222,37.197186 L25.2292444,36.974106 C25.2346889,36.960846 25.7713556,35.640306 26.7466889,33.717606 C27.5656889,32.103786 29.2285778,29.989986 29.5062444,29.640546 C30.6285778,28.439346 30.6052444,26.546286 29.4370222,25.373166 L29.4354667,25.371606 Z" id="Fill-16" fill="#2C3039" mask="url(#mask-2)"></path>
        </g>
    </g>
</svg>