<?xml version="1.0" encoding="UTF-8"?>
<svg width="32px" height="32px" viewBox="0 0 32 32" version="1.1" xmlns="http://www.w3.org/2000/svg" xmlns:xlink="http://www.w3.org/1999/xlink">
    <!-- Generator: Sketch 40.1 (33804) - http://www.bohemiancoding.com/sketch -->
    <title>icon-bus-checked</title>
    <desc>Created with Sketch.</desc>
    <defs></defs>
    <g id="Symbols" stroke="none" stroke-width="1" fill="none" fill-rule="evenodd">
        <g id="icon-bus-checked">
            <path d="M23.0467033,18.368022 L7.84615385,18.368022 C7.46703297,18.368022 7.15934066,18.0603297 7.15934066,17.6812088 L7.24175824,8.78835165 C7.24175824,8.40923077 7.54945055,8.10153846 7.92857143,8.10153846 L23.0467033,8.10153846 C23.4258242,8.10153846 23.7335165,8.40923077 23.7335165,8.78835165 L23.7335165,17.6812088 L23.7335165,17.6812088 C23.7335165,18.0603297 23.4258242,18.368022 23.0467033,18.368022 L23.0467033,18.368022 Z M21.9038736,22.3542857 C21.2225275,22.3542857 20.6758516,21.8020879 20.6758516,21.1262912 C20.6758516,20.439478 21.2253022,19.8927747 21.9038736,19.8927747 C22.5906868,19.8927747 23.1373626,20.4422253 23.1373626,21.1262912 C23.1373626,21.7993681 22.5879121,22.3542857 21.9038736,22.3542857 L21.9038736,22.3542857 Z M19.5906868,21.7993681 L19.5906593,21.7993681 C19.5906593,21.9889011 19.282967,22.1427747 18.9038462,22.1427747 L11.9917582,22.1427747 C11.6126374,22.1427747 11.3049451,21.9889011 11.3049451,21.7993681 L11.3077198,20.3996429 C11.3077198,20.2100549 11.6154121,20.0562363 11.994533,20.0562363 L18.9038736,20.0562363 C19.2829945,20.0562363 19.5906868,20.2100549 19.5906868,20.3996429 L19.5906868,21.7993681 Z M8.99175824,22.3542857 C8.31043956,22.3542857 7.75824176,21.8020879 7.75824176,21.1262912 C7.75824176,20.439478 8.31043956,19.8927747 8.99175824,19.8927747 C9.67307692,19.8927747 10.2252747,20.4422253 10.2252747,21.1262912 C10.2252747,21.7993681 9.67307692,22.3542857 8.99175824,22.3542857 L8.99175824,22.3542857 Z M27.3104396,8.24714286 L26.706044,8.24714286 C26.3269231,8.24714286 26.0192308,8.55483516 26.0192308,8.93395604 L26.0192308,9.78285714 L25.7252747,9.78285714 L25.7252747,8.48615385 C25.7252747,6.29384615 23.9423077,5.0878022 21.75,5.0878022 L9.23076923,5.0878022 C7.03571429,5.0878022 5.25549451,6.2910989 5.25549451,8.48615385 L5.25549451,9.78285714 L4.97802198,9.78285714 L4.97802198,8.93395604 C4.97802198,8.55483516 4.67032967,8.24714286 4.29120879,8.24714286 L3.68681319,8.24714286 C3.30769231,8.24714286 3,8.55483516 3,8.93395604 L3,11.7636264 C3,12.1427473 3.30769231,12.4504396 3.68681319,12.4504396 L4.29120879,12.4504396 C4.67032967,12.4504396 4.97802198,12.1427473 4.97802198,11.7636264 L5.24711538,11.7599176 L5.24936813,12.0737088 C5.23321429,12.1125275 5.22417582,12.155 5.22417582,12.199478 L5.22417582,24.9506044 C5.22417582,25.1319231 5.37252747,25.2802747 5.55384615,25.2802747 L6.46978022,25.2802747 L6.46978022,27.2059341 C6.46978022,27.5850824 6.77747253,27.8927473 7.15659341,27.8927473 L9.57142857,27.8927473 C9.95054945,27.8927473 10.2582418,27.5850824 10.2582418,27.2059341 L10.2582418,25.2279121 L20.6401099,25.2279121 L20.6401099,27.2059341 C20.6401099,27.5850824 20.9477747,27.8927473 21.3269231,27.8927473 L23.7417582,27.8927473 C24.1208791,27.8927473 24.4285714,27.5850824 24.4285714,27.2059341 L24.4339011,25.2802747 L25.339011,25.2802747 C25.5203297,25.2802747 25.6686813,25.1319231 25.6686813,24.9506044 L25.6686813,15.3402473 C25.7068132,14.129011 25.728022,13.3075824 25.728022,13.3075824 L25.7055769,11.6592308 L26.021978,11.7608791 C26.021978,12.14 26.3296703,12.4476923 26.7087912,12.4476923 L27.3131868,12.4476923 C27.6923077,12.4476923 28,12.14 28,11.7608791 L28,8.93120879 C27.9972527,8.55483516 27.6895604,8.24714286 27.3104396,8.24714286 L27.3104396,8.24714286 Z" id="Page-1" fill="#000000"></path>
            <polygon id="Path-1110" fill="#0EB78C" points="20.6236564 28.092634 21.7180014 29.5416345 23.0035829 28.2649749 30 21.3171124 27.7705539 19 22 25 20.5304069 22.6462721 18 24.6187028"></polygon>
        </g>
    </g>
</svg>