<?xml version="1.0" encoding="UTF-8"?>
<svg width="32px" height="32px" viewBox="0 0 32 32" version="1.1" xmlns="http://www.w3.org/2000/svg" xmlns:xlink="http://www.w3.org/1999/xlink">
    <!-- Generator: Sketch 40.1 (33804) - http://www.bohemiancoding.com/sketch -->
    <title>icon-extracosts</title>
    <desc>Created with Sketch.</desc>
    <defs></defs>
    <g id="Symbols" stroke="none" stroke-width="1" fill="none" fill-rule="evenodd" opacity="0.60009058">
        <g id="icon-extracosts" fill="#030104">
            <g id="icon-(1)" transform="translate(3.000000, 3.000000)">
                <g id="Capa_1">
                    <g id="Group">
                        <path d="M22.6603125,13.0957895 L22.6603125,22.4444737 L5.0353125,22.4444737 L5.0353125,13.0957895 L22.6603125,13.0957895 L22.6603125,13.0957895 Z M24.1603125,11.5694737 L3.5353125,11.5694737 L3.5353125,23.9707895 L24.1603125,23.9707895 L24.1603125,11.5694737 L24.1603125,11.5694737 L24.1603125,11.5694737 Z" id="Shape"></path>
                        <g transform="translate(3.437500, 11.447368)">
                            <path d="M15.0978125,0.122105263 L17.2090625,2.27039474 C17.193125,2.34957237 17.1621875,2.42302632 17.1621875,2.50697368 C17.1621875,3.19095395 17.706875,3.74424342 18.3790625,3.74424342 C18.4615625,3.74424342 18.5328125,3.71276316 18.610625,3.6975 L20.7228125,5.84578947 L20.7228125,0.122105263 L15.0978125,0.122105263 L15.0978125,0.122105263 Z" id="Shape"></path>
                            <ellipse id="Oval" cx="16.5040625" cy="6.32276316" rx="1.216875" ry="1.23822368"></ellipse>
                            <ellipse id="Oval" cx="10.4103125" cy="6.32276316" rx="3.680625" ry="3.25677632"></ellipse>
                            <ellipse id="Oval" cx="4.3165625" cy="6.32276316" rx="1.2159375" ry="1.23726974"></ellipse>
                            <path d="M0.0978125,5.84578947 L2.2090625,3.6975 C2.286875,3.71371711 2.3590625,3.74519737 2.4415625,3.74519737 C3.11375,3.74519737 3.6575,3.19095395 3.6575,2.50697368 C3.6575,2.42302632 3.6265625,2.35052632 3.610625,2.27134868 L5.7228125,0.122105263 L0.0978125,0.122105263 L0.0978125,5.84578947 L0.0978125,5.84578947 Z" id="Shape"></path>
                            <path d="M3.6584375,10.1385526 C3.6584375,9.45457237 3.11375,8.90128289 2.4415625,8.90128289 C2.3590625,8.90128289 2.2878125,8.93276316 2.21,8.94802632 L0.0978125,6.79973684 L0.0978125,12.5234211 L5.7228125,12.5234211 L3.6115625,10.3751316 C3.6275,10.2959539 3.6584375,10.2215461 3.6584375,10.1385526 L3.6584375,10.1385526 Z" id="Shape"></path>
                            <path d="M18.3790625,8.90032895 C17.706875,8.90032895 17.163125,9.45457237 17.163125,10.1385526 C17.163125,10.2225 17.1940625,10.295 17.21,10.3741776 L15.0978125,12.5234211 L20.7228125,12.5234211 L20.7228125,6.79973684 L18.6115625,8.94802632 C18.53375,8.93180921 18.4615625,8.90032895 18.3790625,8.90032895 L18.3790625,8.90032895 Z" id="Shape"></path>
                        </g>
                        <g>
                            <ellipse id="Oval" cx="17.3184375" cy="8.11332237" rx="1.2159375" ry="1.23726974"></ellipse>
                            <path d="M2.1290625,11.5694737 C2.1290625,10.7796053 2.7590625,10.1385526 3.5353125,10.1385526 L4.3040625,10.1385526 L4.33875,10.0164474 L15.1921875,3.96842105 L16.021875,4.21453947 C16.0453125,4.29085526 16.05375,4.37098684 16.0940625,4.44444079 C16.4165625,5.04542763 17.1553125,5.26388158 17.7459375,4.93572368 C17.8171875,4.89565789 17.8659375,4.83365132 17.925,4.78118421 L18.7565625,5.02921053 L20.6475,8.54164474 L20.4046875,9.38684211 C20.330625,9.40973684 20.251875,9.41832237 20.1796875,9.45838816 C19.905,9.61101974 19.7221875,9.86095395 19.625625,10.1385526 L23.2171875,10.1385526 L20.7928125,5.63305921 L20.79375,5.63305921 L18.0909375,0.613388158 L13.1559375,3.36266447 L13.156875,3.36266447 L4.9340625,7.94447368 L0,10.69375 L2.1290625,14.6497697 L2.1290625,11.5694737 L2.1290625,11.5694737 Z" id="Shape"></path>
                            <path d="M10.4353125,8.23638158 C9.61875,8.69046053 9.0309375,9.37921053 8.7009375,10.1385526 L15.481875,10.1385526 C15.4275,9.84759868 15.3459375,9.56236842 15.2015625,9.29430921 C14.35125,7.71648026 12.2184375,7.24332237 10.4353125,8.23638158 L10.4353125,8.23638158 Z" id="Shape"></path>
                        </g>
                    </g>
                </g>
            </g>
        </g>
    </g>
</svg>