<?xml version="1.0" encoding="UTF-8" standalone="no"?>
<svg width="32px" height="32px" viewBox="0 0 32 32" version="1.1" xmlns="http://www.w3.org/2000/svg" xmlns:xlink="http://www.w3.org/1999/xlink">
    <!-- Generator: Sketch 3.7.2 (28276) - http://www.bohemiancoding.com/sketch -->
    <title>icon-calendar-green</title>
    <desc>Created with Sketch.</desc>
    <defs></defs>
    <g id="Symbols" stroke="none" stroke-width="1" fill="none" fill-rule="evenodd">
        <g id="icon-calendar-green" fill="#0EB78C">
            <g id="Group-Copy" transform="translate(6.000000, 5.000000)">
                <polygon id="Line" points="3.15 8.88095238 5.25 8.88095238 5.75 8.88095238 5.75 7.88095238 5.25 7.88095238 3.15 7.88095238 2.65 7.88095238 2.65 8.88095238"></polygon>
                <polygon id="Line-Copy" points="3.15 10.9761905 5.25 10.9761905 5.75 10.9761905 5.75 9.97619048 5.25 9.97619048 3.15 9.97619048 2.65 9.97619048 2.65 10.9761905"></polygon>
                <polygon id="Line-Copy-2" points="3.15 13.0714286 5.25 13.0714286 5.75 13.0714286 5.75 12.0714286 5.25 12.0714286 3.15 12.0714286 2.65 12.0714286 2.65 13.0714286"></polygon>
                <polygon id="Line-Copy-3" points="3.15 15.1666667 5.25 15.1666667 5.75 15.1666667 5.75 14.1666667 5.25 14.1666667 3.15 14.1666667 2.65 14.1666667 2.65 15.1666667"></polygon>
                <polygon id="Line-Copy-5" points="3.15 17.2619048 5.25 17.2619048 5.75 17.2619048 5.75 16.2619048 5.25 16.2619048 3.15 16.2619048 2.65 16.2619048 2.65 17.2619048"></polygon>
                <polygon id="Line" points="7.35 8.88095238 9.45 8.88095238 9.95 8.88095238 9.95 7.88095238 9.45 7.88095238 7.35 7.88095238 6.85 7.88095238 6.85 8.88095238"></polygon>
                <polygon id="Line-Copy" points="7.35 10.9761905 9.45 10.9761905 9.95 10.9761905 9.95 9.97619048 9.45 9.97619048 7.35 9.97619048 6.85 9.97619048 6.85 10.9761905"></polygon>
                <polygon id="Line-Copy-2" points="7.35 13.0714286 9.45 13.0714286 9.95 13.0714286 9.95 12.0714286 9.45 12.0714286 7.35 12.0714286 6.85 12.0714286 6.85 13.0714286"></polygon>
                <polygon id="Line-Copy-3" points="7.35 15.1666667 9.45 15.1666667 9.95 15.1666667 9.95 14.1666667 9.45 14.1666667 7.35 14.1666667 6.85 14.1666667 6.85 15.1666667"></polygon>
                <polygon id="Line-Copy-5" points="7.35 17.2619048 9.45 17.2619048 9.95 17.2619048 9.95 16.2619048 9.45 16.2619048 7.35 16.2619048 6.85 16.2619048 6.85 17.2619048"></polygon>
                <polygon id="Line" points="11.55 8.88095238 13.65 8.88095238 14.15 8.88095238 14.15 7.88095238 13.65 7.88095238 11.55 7.88095238 11.05 7.88095238 11.05 8.88095238"></polygon>
                <polygon id="Line-Copy" points="11.55 10.9761905 13.65 10.9761905 14.15 10.9761905 14.15 9.97619048 13.65 9.97619048 11.55 9.97619048 11.05 9.97619048 11.05 10.9761905"></polygon>
                <polygon id="Line-Copy-2" points="11.55 13.0714286 13.65 13.0714286 14.15 13.0714286 14.15 12.0714286 13.65 12.0714286 11.55 12.0714286 11.05 12.0714286 11.05 13.0714286"></polygon>
                <polygon id="Line-Copy-3" points="11.55 15.1666667 13.65 15.1666667 14.15 15.1666667 14.15 14.1666667 13.65 14.1666667 11.55 14.1666667 11.05 14.1666667 11.05 15.1666667"></polygon>
                <polygon id="Line-Copy-5" points="11.55 17.2619048 13.65 17.2619048 14.15 17.2619048 14.15 16.2619048 13.65 16.2619048 11.55 16.2619048 11.05 16.2619048 11.05 17.2619048"></polygon>
                <polygon id="Line" points="15.75 8.88095238 17.85 8.88095238 18.35 8.88095238 18.35 7.88095238 17.85 7.88095238 15.75 7.88095238 15.25 7.88095238 15.25 8.88095238"></polygon>
                <polygon id="Line-Copy" points="15.75 10.9761905 17.85 10.9761905 18.35 10.9761905 18.35 9.97619048 17.85 9.97619048 15.75 9.97619048 15.25 9.97619048 15.25 10.9761905"></polygon>
                <polygon id="Line-Copy-2" points="15.75 13.0714286 17.85 13.0714286 18.35 13.0714286 18.35 12.0714286 17.85 12.0714286 15.75 12.0714286 15.25 12.0714286 15.25 13.0714286"></polygon>
                <polygon id="Line-Copy-3" points="15.75 15.1666667 17.85 15.1666667 18.35 15.1666667 18.35 14.1666667 17.85 14.1666667 15.75 14.1666667 15.25 14.1666667 15.25 15.1666667"></polygon>
                <polygon id="Line-Copy-5" points="15.75 17.2619048 17.85 17.2619048 18.35 17.2619048 18.35 16.2619048 17.85 16.2619048 15.75 16.2619048 15.25 16.2619048 15.25 17.2619048"></polygon>
                <path d="M15.775,0.523809524 L15.775,4.81802046 C15.775,5.09416283 15.9988576,5.31802046 16.275,5.31802046 C16.5511424,5.31802046 16.775,5.09416283 16.775,4.81802046 L16.775,0.523809524 C16.775,0.247667149 16.5511424,0.0238095238 16.275,0.0238095238 C15.9988576,0.0238095238 15.775,0.247667149 15.775,0.523809524 L15.775,0.523809524 Z" id="Line-Copy-4"></path>
                <path d="M4.225,0.523809524 L4.225,4.81802046 C4.225,5.09416283 4.44885763,5.31802046 4.725,5.31802046 C5.00114237,5.31802046 5.225,5.09416283 5.225,4.81802046 L5.225,0.523809524 C5.225,0.247667149 5.00114237,0.0238095238 4.725,0.0238095238 C4.44885763,0.0238095238 4.225,0.247667149 4.225,0.523809524 L4.225,0.523809524 Z" id="Line"></path>
                <path d="M1,4.09491805 L1,4.09491805 L1,20.00032 C1,20.5537817 1.44528406,21 1.99456145,21 L19.0054385,21 C19.5487499,21 20,20.5490517 20,20.00032 L20,4.09491805 C20,3.54254832 19.5514444,3.0952381 18.9956891,3.0952381 L18.2691284,3.0952381 L3.49940186,3.0952381 L1.99604492,3.0952381 C1.44851952,3.0952381 1,3.54399123 1,4.09491805 L1,4.09491805 Z M17.85,2.0952381 L18.2691284,2.0952381 L18.9956891,2.0952381 C20.1026395,2.0952381 21,2.98917327 21,4.09491805 L21,20.00032 C21,21.1047128 20.0976563,22 19.0054385,22 L1.99456145,22 C0.892995579,22 0,21.1060648 0,20.00032 L0,4.09491805 C0,2.99052531 0.897415198,2.0952381 1.99604492,2.0952381 L3.15,2.0952381 L3.15,3.0952381 L6.3,3.0952381 L6.3,2.0952381 L14.7,2.0952381 L14.7,3.0952381 L17.85,3.0952381 L17.85,2.0952381 Z" id="Combined-Shape"></path>
            </g>
        </g>
    </g>
</svg>