<?xml version="1.0" encoding="UTF-8" standalone="no"?>
<svg width="32px" height="32px" viewBox="0 0 32 32" version="1.1" xmlns="http://www.w3.org/2000/svg" xmlns:xlink="http://www.w3.org/1999/xlink">
    <!-- Generator: Sketch 3.7.2 (28276) - http://www.bohemiancoding.com/sketch -->
    <title>icon-date</title>
    <desc>Created with Sketch.</desc>
    <defs></defs>
    <g id="Symbols" stroke="none" stroke-width="1" fill="none" fill-rule="evenodd">
        <g id="icon-date" fill="#000000">
            <g id="Group-3" transform="translate(5.000000, 4.000000)">
                <path d="M19.4231264,2.82344828 L17.7056543,2.82344828 L17.7056543,1.63252414 C17.7056543,0.756382759 17.0064089,0.0463172414 16.144316,0.0463172414 L16.0817844,0.0463172414 C15.2193792,0.0463172414 14.5204461,0.756382759 14.5204461,1.63252414 L14.5204461,2.82344828 L6.46401859,2.82344828 L6.46401859,1.63252414 C6.46401859,0.756382759 5.76477323,0.0463172414 4.9026803,0.0463172414 L4.8401487,0.0463172414 C3.97774349,0.0463172414 3.27881041,0.756382759 3.27881041,1.63252414 L3.27881041,2.82344828 L1.56133829,2.82344828 C0.698933086,2.82344828 0,3.53351379 0,4.40965517 L0,21.4136345 C0,22.2897759 0.698933086,22.9998414 1.56133829,22.9998414 L19.4231264,22.9998414 C20.2852193,22.9998414 20.9844647,22.2897759 20.9844647,21.4136345 L20.9844647,4.40965517 C20.9844647,3.53351379 20.2852193,2.82344828 19.4231264,2.82344828 L19.4231264,2.82344828 Z M2.62320446,20.4937931 L18.3612602,20.4937931 L18.3612602,7.61363448 L2.62320446,7.61363448 L2.62320446,20.4937931 Z" id="Fill-1"></path>
                <polygon id="Path-1110" points="6.16020663 14.0715834 8.27942654 16.8776003 9.16336765 18.0480091 10.2017772 17.0168061 15.8530303 11.4047723 14.052228 9.53315878 8.4009749 15.1451926 10.3233256 15.2843984 8.20410564 12.4783815"></polygon>
            </g>
        </g>
    </g>
</svg>