<?xml version="1.0" encoding="UTF-8" standalone="no"?>
<svg width="32px" height="32px" viewBox="0 0 32 32" version="1.1" xmlns="http://www.w3.org/2000/svg" xmlns:xlink="http://www.w3.org/1999/xlink">
    <!-- Generator: Sketch 3.7.2 (28276) - http://www.bohemiancoding.com/sketch -->
    <title>icon-mail</title>
    <desc>Created with Sketch.</desc>
    <defs></defs>
    <g id="Symbols" stroke="none" stroke-width="1" fill="none" fill-rule="evenodd">
        <g id="icon-mail" fill="#000000">
            <g id="Group-6" transform="translate(3.000000, 6.000000)">
                <path d="M23.8849253,0 L4.0116394,0 C2.30638089,0 0.918833761,1.34662762 0.918833761,3.00146438 L0.918833761,16.9985356 C0.918833761,18.6537169 2.30638089,20 4.0116394,20 L23.8849253,20 C25.5905248,20 26.9780719,18.6537169 26.9780719,16.9985356 L26.9780719,3.00146438 C26.9780719,1.34662762 25.5905248,0 23.8849253,0 L23.8849253,0 Z M23.8849253,17.3505039 L4.0116394,17.3505039 C3.76127226,17.3505039 3.54116741,17.1859764 3.54116741,16.9985356 L3.54116741,4.85244207 L12.5292369,12.520286 C12.7137089,12.6774055 12.9477941,12.7638901 13.1892104,12.7638901 L14.7073542,12.7642346 C14.9484296,12.7642346 15.1828557,12.6774055 15.3673278,12.520286 L24.3558235,4.85218365 L24.3558235,16.9988802 C24.3554825,17.1859764 24.1357186,17.3505039 23.8849253,17.3505039 L23.8849253,17.3505039 Z M13.9484955,10.1329141 L5.2064456,2.64984064 L22.6904601,2.64984064 L13.9484955,10.1329141 Z" id="message-closed-envelope"></path>
            </g>
        </g>
    </g>
</svg>