<?xml version="1.0" encoding="UTF-8"?>
<svg width="32px" height="32px" viewBox="0 0 32 32" version="1.1" xmlns="http://www.w3.org/2000/svg" xmlns:xlink="http://www.w3.org/1999/xlink">
    <!-- Generator: Sketch 40.1 (33804) - http://www.bohemiancoding.com/sketch -->
    <title>icon-bus-green</title>
    <desc>Created with Sketch.</desc>
    <defs></defs>
    <g id="Symbols" stroke="none" stroke-width="1" fill="none" fill-rule="evenodd">
        <g id="icon-bus-green" fill="#0EB78C">
            <path d="M23.8485714,18.8992308 L8.04,18.8992308 C7.64571429,18.8992308 7.32571429,18.5792308 7.32571429,18.1849451 L7.41142857,8.93637363 C7.41142857,8.54208791 7.73142857,8.22208791 8.12571429,8.22208791 L23.8485714,8.22208791 C24.2428571,8.22208791 24.5628571,8.54208791 24.5628571,8.93637363 L24.5628571,18.1849451 L24.5628571,18.1849451 C24.5628571,18.5792308 24.2428571,18.8992308 23.8485714,18.8992308 L23.8485714,18.8992308 Z M22.6600286,23.0449451 C21.9514286,23.0449451 21.3828857,22.4706593 21.3828857,21.7678308 C21.3828857,21.0535451 21.9543143,20.4849736 22.6600286,20.4849736 C23.3743143,20.4849736 23.9428571,21.0564022 23.9428571,21.7678308 C23.9428571,22.4678308 23.3714286,23.0449451 22.6600286,23.0449451 L22.6600286,23.0449451 Z M20.2543143,22.4678308 L20.2542857,22.4678308 C20.2542857,22.6649451 19.9342857,22.8249736 19.54,22.8249736 L12.3514286,22.8249736 C11.9571429,22.8249736 11.6371429,22.6649451 11.6371429,22.4678308 L11.6400286,21.0121165 C11.6400286,20.8149451 11.9600286,20.6549736 12.3543143,20.6549736 L19.5400286,20.6549736 C19.9343143,20.6549736 20.2543143,20.8149451 20.2543143,21.0121165 L20.2543143,22.4678308 Z M9.23142857,23.0449451 C8.52285714,23.0449451 7.94857143,22.4706593 7.94857143,21.7678308 C7.94857143,21.0535451 8.52285714,20.4849736 9.23142857,20.4849736 C9.94,20.4849736 10.5142857,21.0564022 10.5142857,21.7678308 C10.5142857,22.4678308 9.94,23.0449451 9.23142857,23.0449451 L9.23142857,23.0449451 Z M28.2828571,8.37351648 L27.6542857,8.37351648 C27.26,8.37351648 26.94,8.69351648 26.94,9.0878022 L26.94,9.97065934 L26.6342857,9.97065934 L26.6342857,8.62208791 C26.6342857,6.34208791 24.78,5.0878022 22.5,5.0878022 L9.48,5.0878022 C7.19714286,5.0878022 5.34571429,6.33923077 5.34571429,8.62208791 L5.34571429,9.97065934 L5.05714286,9.97065934 L5.05714286,9.0878022 C5.05714286,8.69351648 4.73714286,8.37351648 4.34285714,8.37351648 L3.71428571,8.37351648 C3.32,8.37351648 3,8.69351648 3,9.0878022 L3,12.0306593 C3,12.4249451 3.32,12.7449451 3.71428571,12.7449451 L4.34285714,12.7449451 C4.73714286,12.7449451 5.05714286,12.4249451 5.05714286,12.0306593 L5.337,12.0268022 L5.33934286,12.3531451 C5.32254286,12.3935165 5.31314286,12.4376879 5.31314286,12.4839451 L5.31314286,25.7451165 C5.31314286,25.9336879 5.46742857,26.0879736 5.656,26.0879736 L6.60857143,26.0879736 L6.60857143,28.0906593 C6.60857143,28.4849736 6.92857143,28.8049451 7.32285714,28.8049451 L9.83428571,28.8049451 C10.2285714,28.8049451 10.5485714,28.4849736 10.5485714,28.0906593 L10.5485714,26.0335165 L21.3457143,26.0335165 L21.3457143,28.0906593 C21.3457143,28.4849736 21.6656857,28.8049451 22.06,28.8049451 L24.5714286,28.8049451 C24.9657143,28.8049451 25.2857143,28.4849736 25.2857143,28.0906593 L25.2912571,26.0879736 L26.2325714,26.0879736 C26.4211429,26.0879736 26.5754286,25.9336879 26.5754286,25.7451165 L26.5754286,15.7503451 C26.6150857,14.4906593 26.6371429,13.6363736 26.6371429,13.6363736 L26.6138,11.9220879 L26.9428571,12.0278022 C26.9428571,12.4220879 27.2628571,12.7420879 27.6571429,12.7420879 L28.2857143,12.7420879 C28.68,12.7420879 29,12.4220879 29,12.0278022 L29,9.08494505 C28.9971429,8.69351648 28.6771429,8.37351648 28.2828571,8.37351648 L28.2828571,8.37351648 Z" id="Page-1"></path>
        </g>
    </g>
</svg>