<?xml version="1.0" encoding="UTF-8" standalone="no"?>
<svg width="32px" height="32px" viewBox="0 0 32 32" version="1.1" xmlns="http://www.w3.org/2000/svg" xmlns:xlink="http://www.w3.org/1999/xlink">
    <!-- Generator: Sketch 3.7.2 (28276) - http://www.bohemiancoding.com/sketch -->
    <title>icon-print</title>
    <desc>Created with Sketch.</desc>
    <defs>
        <polygon id="path-1" points="12.831 0.4 0.06 0.4 0.06 26.002 25.602 26.002 25.602 0.4"></polygon>
    </defs>
    <g id="Symbols" stroke="none" stroke-width="1" fill="none" fill-rule="evenodd">
        <g id="icon-print">
            <g id="print-outlined-interface-symbol" transform="translate(3.000000, 3.000000)">
                <mask id="mask-2" fill="white">
                    <use xlink:href="#path-1"></use>
                </mask>
                <g id="Clip-2"></g>
                <path d="M24,6.002 L20.801,6.002 L20.801,0.4 L4.801,0.4 L4.801,6.002 L1.602,6.002 C0.715,6.002 0,6.716 0,7.599 L0,20.4 C0,21.283 0.715,22.002 1.602,22.002 L4.801,22.002 L4.801,26.002 L20.801,26.002 L20.801,22.002 L24,22.002 C24.883,22.002 25.602,21.283 25.602,20.4 L25.602,7.599 C25.602,6.716 24.883,6.002 24,6.002 L24,6.002 Z M7.199,6.002 L18.398,6.002 L18.398,2.798 L7.199,2.798 L7.199,6.002 Z M7.199,23.599 L18.398,23.599 L18.398,18.002 L7.199,18.002 L7.199,23.599 Z M23.199,19.599 L20.801,19.599 L20.801,15.599 L4.801,15.599 L4.801,19.599 L2.398,19.599 L2.398,8.4 L23.199,8.4 L23.199,19.599 Z M18.398,12.4 L20.801,12.4 L20.801,10.002 L18.398,10.002 L18.398,12.4 Z" id="Fill-1" fill="#000000" mask="url(#mask-2)"></path>
            </g>
        </g>
    </g>
</svg>