<?xml version="1.0" encoding="UTF-8" standalone="no"?>
<svg width="32px" height="32px" viewBox="0 0 32 32" version="1.1" xmlns="http://www.w3.org/2000/svg" xmlns:xlink="http://www.w3.org/1999/xlink">
    <!-- Generator: Sketch 39.1 (31720) - http://www.bohemiancoding.com/sketch -->
    <title>icon-calendar-checked</title>
    <desc>Created with Sketch.</desc>
    <defs></defs>
    <g id="Symbols" stroke="none" stroke-width="1" fill="none" fill-rule="evenodd">
        <g id="icon-calendar-checked">
            <path d="M13,7 L20,7 L20,9.81802046 C20,10.92259 20.8954305,11.8180205 22,11.8180205 C23.1045695,11.8180205 24,10.92259 24,9.81802046 L24,7 L25.0054385,7 C26.1070044,7 27,7.89821238 27,8.99079514 L27,25.0092049 C27,26.1086907 26.0976562,27 25.0054385,27 L7.99456145,27 C6.89299558,27 6,26.1017876 6,25.0092049 L6,8.99079514 C6,7.89130934 6.90234375,7 7.99456145,7 L9,7 L9,9.81802046 C9,10.92259 9.8954305,11.8180205 11,11.8180205 C12.1045695,11.8180205 13,10.92259 13,9.81802046 L13,7 Z" id="Combined-Shape" fill="#000000" opacity="0.476679104"></path>
            <path d="M21,9.81802046 C21,10.3703052 21.4477153,10.8180205 22,10.8180205 C22.5522847,10.8180205 23,10.3703052 23,9.81802046 L23,5.52380952 C23,4.97152477 22.5522847,4.52380952 22,4.52380952 C21.4477153,4.52380952 21,4.97152477 21,5.52380952 L21,9.81802046 Z" id="Line-Copy-4" fill="#000000" opacity="0.476679104"></path>
            <path d="M10,9.81802046 C10,10.3703052 10.4477153,10.8180205 11,10.8180205 C11.5522847,10.8180205 12,10.3703052 12,9.81802046 L12,5.52380952 C12,4.97152477 11.5522847,4.52380952 11,4.52380952 C10.4477153,4.52380952 10,4.97152477 10,5.52380952 L10,9.81802046 Z" id="Line" fill="#000000" opacity="0.476679104"></path>
            <polygon id="Path-1110" fill="#0EB78C" points="13.0609325 22.608073 14.3376683 24.2985736 15.8375134 22.8091373 24 14.7032978 21.3989796 12 14.6666667 19 12.9521414 16.2539841 10 18.5551532"></polygon>
        </g>
    </g>
</svg>