<?xml version="1.0" encoding="UTF-8" standalone="no"?>
<svg width="32px" height="32px" viewBox="0 0 32 32" version="1.1" xmlns="http://www.w3.org/2000/svg" xmlns:xlink="http://www.w3.org/1999/xlink">
    <!-- Generator: Sketch 3.7.2 (28276) - http://www.bohemiancoding.com/sketch -->
    <title>icon-hotel-white</title>
    <desc>Created with Sketch.</desc>
    <defs></defs>
    <g id="Symbols" stroke="none" stroke-width="1" fill="none" fill-rule="evenodd">
        <g id="icon-hotel-white" fill="#FFFFFF">
            <g id="Group-4" transform="translate(4.000000, 8.000000)">
                <path d="M23.4423693,12.4825895 C23.4423693,7.84193575 19.2496913,4.02087617 13.8370077,3.46308895 C14.2295416,3.09750326 14.4786085,2.58056044 14.4786085,2.00181608 C14.4786085,0.896311135 13.5815141,0 12.4742282,0 C11.3668793,0 10.4695329,0.896311135 10.4695329,2.00181608 C10.4695329,2.58056044 10.7185998,3.09750326 11.1111967,3.46308895 C5.69870217,4.02087617 1.5060241,7.84193575 1.5060241,12.4825895 C1.5060241,12.4835964 23.4423693,12.4835964 23.4423693,12.4825895 L23.4423693,12.4825895 Z M9.27485627,6.25410189 C7.73338881,6.74725552 6.42750471,7.6669153 5.5970718,8.84372487 C5.4772324,9.01459166 5.28625803,9.10502833 5.09276338,9.10502833 C4.96996264,9.10502833 4.84590176,9.06890401 4.73784467,8.9926905 C4.45973156,8.79702758 4.39332213,8.41230985 4.58895902,8.13495813 C5.57319213,6.740081 7.10382238,5.65521853 8.89927125,5.08220119 C9.22463966,4.97766722 9.57023332,5.15740775 9.67406894,5.48044982 C9.77771553,5.80443589 9.59902754,6.1508266 9.27485627,6.25410189 L9.27485627,6.25410189 Z" id="Fill-1"></path>
                <path d="M23.7672041,13.2307692 L1.23279593,13.2307692 C0.551815737,13.2307692 0,13.7823889 0,14.4623946 C0,15.1421486 0.551815737,15.6937683 1.23279593,15.6937683 L23.7672041,15.6937683 C24.4481843,15.6937683 25,15.1421486 25,14.4623946 C25,13.7823889 24.4481843,13.2307692 23.7672041,13.2307692 L23.7672041,13.2307692 Z" id="Fill-2"></path>
            </g>
        </g>
    </g>
</svg>