<?xml version="1.0" encoding="UTF-8" standalone="no"?>
<svg width="32px" height="32px" viewBox="0 0 32 32" version="1.1" xmlns="http://www.w3.org/2000/svg" xmlns:xlink="http://www.w3.org/1999/xlink">
    <!-- Generator: Sketch 3.7.2 (28276) - http://www.bohemiancoding.com/sketch -->
    <title>icon-taxi-white</title>
    <desc>Created with Sketch.</desc>
    <defs></defs>
    <g id="Symbols" stroke="none" stroke-width="1" fill="none" fill-rule="evenodd">
        <g id="icon-taxi-white" fill="#FFFFFF">
            <g id="Group" transform="translate(5.000000, 6.000000)">
                <path d="M21.9677802,7.37893902 C21.8641538,7.37893902 21.758,7.39340854 21.6518462,7.42337195 L20.5372308,7.73453049 L19.3593022,4.82692683 C19.0063407,3.95555488 17.9628736,3.24680488 17.0332692,3.24680488 L16.2493736,3.24680488 L16.2493736,0.836414634 C16.2493736,0.41270122 15.9093022,0.0681219512 15.4911319,0.0681219512 L7.45503297,0.0681219512 C7.03698901,0.0681219512 6.69679121,0.41270122 6.69679121,0.836414634 L6.69679121,3.24680488 L5.8970989,3.24680488 C4.96762088,3.24680488 3.92352198,3.95555488 3.57106593,4.82692683 L2.39414835,7.73004878 L1.29431868,7.42337195 C1.18867033,7.39340854 1.08201099,7.37842683 0.97889011,7.37842683 C0.411725275,7.37893902 0,7.81763415 0,8.42228049 L0,9.0405 C0,9.74681707 0.567164835,10.3209878 1.26373626,10.3209878 L1.34474176,10.3209878 L1.17641209,10.736122 C0.848598901,11.5455183 0.581571429,12.9160244 0.581571429,13.7913659 L0.581571429,19.5915915 C0.581571429,20.2972683 1.14873626,20.8720793 1.84530769,20.8720793 L3.3646978,20.8720793 C4.06177473,20.8720793 4.62843407,20.2972683 4.62843407,19.5915915 L4.62843407,18.1660244 L18.3019341,18.1660244 L18.3019341,19.5915915 C18.3019341,20.2972683 18.8687198,20.8720793 19.5656703,20.8720793 L21.0846813,20.8720793 C21.7816319,20.8720793 22.3484176,20.2972683 22.3484176,19.5915915 L22.3484176,13.7913659 C22.3484176,12.9160244 22.0812637,11.5455183 21.7535769,10.736122 L21.5852473,10.3209878 L21.6824286,10.3209878 C22.3795055,10.3209878 22.9461648,9.74681707 22.9461648,9.0405 L22.9461648,8.42228049 C22.9461648,7.81763415 22.5349451,7.37893902 21.9677802,7.37893902 L21.9677802,7.37893902 Z M14.5191923,1.0925122 C14.5191923,1.0759939 14.5324615,1.06203659 14.5492692,1.06203659 L15.1337473,1.06203659 C15.1500495,1.06203659 15.1638242,1.0759939 15.1638242,1.0925122 L15.1638242,3.22337195 C15.1638242,3.23335976 15.1578846,3.24078659 15.1505549,3.24680488 L14.5324615,3.24680488 C14.5246264,3.24078659 14.5191923,3.23335976 14.5191923,3.22337195 L14.5191923,1.0925122 Z M10.3295275,1.06203659 L11.031533,1.06203659 C11.0483407,1.06203659 11.0665385,1.07496951 11.0729835,1.09046341 L11.9062912,3.21287195 L12.669967,2.25545122 C12.6803297,2.24239024 12.6813407,2.21998171 12.6718626,2.20589634 L11.9394011,1.08751829 C11.9299231,1.07356098 11.9358626,1.06203659 11.9526703,1.06203659 L12.6018516,1.06203659 C12.6186593,1.06203659 12.6393846,1.07394512 12.6482308,1.08803049 L13.0258352,1.70919512 C13.0348077,1.72379268 13.0490879,1.72379268 13.0574286,1.70919512 L13.4355385,1.08803049 C13.444511,1.07356098 13.4652363,1.06203659 13.482044,1.06203659 L14.1316044,1.06203659 C14.1479066,1.06203659 14.1543516,1.07356098 14.145,1.08751829 L13.4114011,2.20589634 C13.4020495,2.21998171 13.4030604,2.24239024 13.4134231,2.25545122 L14.1913791,3.22977439 C14.1963077,3.23630488 14.1978242,3.24232317 14.1958022,3.24680488 L13.5066868,3.24680488 C13.4973352,3.24181098 13.4893736,3.23528049 13.4844451,3.22785366 L13.0579341,2.5360061 C13.0490879,2.52153659 13.0343022,2.52153659 13.0253297,2.5360061 L12.5998297,3.22785366 C12.5949011,3.23528049 12.5870659,3.24181098 12.5775879,3.24680488 L11.2788462,3.24680488 C11.27,3.24129878 11.262544,3.23438415 11.2596374,3.22478049 L11.116456,2.78070732 C11.111022,2.76470122 11.0932033,2.75164024 11.0763956,2.75164024 L10.2807473,2.75164024 C10.2644451,2.75164024 10.2461209,2.76470122 10.2406868,2.78019512 L10.0861319,3.22478049 C10.0832253,3.23438415 10.0753901,3.24129878 10.0664176,3.24680488 L9.4415,3.24680488 C9.43657143,3.24129878 9.43454945,3.23438415 9.43808791,3.22529268 L10.2875714,1.09046341 C10.2940165,1.07496951 10.3127198,1.06203659 10.3295275,1.06203659 L10.3295275,1.06203659 Z M8.27494505,3.22337195 L8.27494505,1.53069512 C8.27494505,1.51417683 8.26167582,1.50021951 8.24486813,1.50021951 L7.54298901,1.50021951 C7.52618132,1.50021951 7.51228022,1.48613415 7.51228022,1.46910366 L7.51228022,1.0925122 C7.51228022,1.07548171 7.52618132,1.06203659 7.54298901,1.06203659 L9.65671429,1.06203659 C9.67352198,1.06203659 9.68679121,1.07548171 9.68679121,1.0925122 L9.68679121,1.46910366 C9.68679121,1.48613415 9.67352198,1.50021951 9.65671429,1.50021951 L8.95028571,1.50021951 C8.93398352,1.50021951 8.92020879,1.51417683 8.92020879,1.53069512 L8.92020879,3.22337195 C8.92020879,3.23335976 8.91426923,3.24078659 8.90681319,3.24680488 L8.28834066,3.24680488 C8.28088462,3.24129878 8.27494505,3.23335976 8.27494505,3.22337195 L8.27494505,3.22337195 Z M3.28723077,9.6072439 L5.07718681,5.18904878 C5.28848352,4.66789024 5.91630769,4.2417439 6.47222527,4.2417439 L16.4581429,4.2417439 C17.0140604,4.2417439 17.642011,4.66789024 17.8528022,5.18904878 L19.6427582,9.6072439 C19.8539286,10.1284024 19.5721154,10.555061 19.0158187,10.555061 L3.91417033,10.555061 C3.35825275,10.555061 3.07593407,10.1284024 3.28723077,9.6072439 L3.28723077,9.6072439 Z M7.33068132,15.2969634 C7.33068132,15.5785427 7.10358791,15.8091585 6.82518681,15.8091585 L3.40867582,15.8091585 C3.13065385,15.8091585 2.90318132,15.5785427 2.90318132,15.2969634 L2.90318132,13.6547378 C2.90318132,13.3726463 3.13065385,13.1425427 3.40867582,13.1425427 L6.82518681,13.1425427 C7.10358791,13.1425427 7.33068132,13.3726463 7.33068132,13.6547378 L7.33068132,15.2969634 Z M19.9942033,15.2969634 C19.9942033,15.5785427 19.7666044,15.8091585 19.4887088,15.8091585 L16.0721978,15.8091585 C15.7941758,15.8091585 15.5667033,15.5785427 15.5667033,15.2969634 L15.5667033,13.6547378 C15.5667033,13.3726463 15.7941758,13.1425427 16.0721978,13.1425427 L19.4887088,13.1425427 C19.7666044,13.1425427 19.9942033,13.3726463 19.9942033,13.6547378 L19.9942033,15.2969634 Z M11.0167323,2.2934497 C11.0330345,2.2934497 11.0415016,2.28102896 11.0350565,2.26540701 L10.7828148,1.67625457 C10.7763697,1.66076067 10.7649961,1.66076067 10.7580455,1.67625457 L10.4915236,2.26591921 C10.484573,2.28102896 10.4925345,2.2934497 10.5093422,2.2934497 L11.0167323,2.2934497 Z" id="Combined-Shape"></path>
            </g>
        </g>
    </g>
</svg>