<?xml version="1.0" encoding="UTF-8" standalone="no"?>
<svg width="32px" height="32px" viewBox="0 0 32 32" version="1.1" xmlns="http://www.w3.org/2000/svg" xmlns:xlink="http://www.w3.org/1999/xlink">
    <!-- Generator: Sketch 3.8.3 (29802) - http://www.bohemiancoding.com/sketch -->
    <title>icon-trip-checked</title>
    <desc>Created with Sketch.</desc>
    <defs>
        <path d="M1.28,1.88108419 L1.28,1.88108419 L1.28,15.0903444 C1.28,15.4350002 1.56468009,15.7142857 1.91701423,15.7142857 L6.12906577,15.7142857 C6.47959566,15.7142857 6.76608,15.4334537 6.76608,15.0903444 L6.76608,1.88108419 C6.76608,1.53642837 6.48139991,1.25714286 6.12906577,1.25714286 L1.91701423,1.25714286 C1.56648434,1.25714286 1.28,1.53797488 1.28,1.88108419 L1.28,1.88108419 Z M0,1.88108419 C0,0.842190079 0.861071504,0 1.91701423,0 L6.12906577,0 C7.18780349,0 8.04608,0.841615782 8.04608,1.88108419 L8.04608,15.0903444 C8.04608,16.1292385 7.1850085,16.9714286 6.12906577,16.9714286 L1.91701423,16.9714286 C0.858276507,16.9714286 0,16.1298128 0,15.0903444 L0,1.88108419 L0,1.88108419 Z" id="path-1"></path>
    </defs>
    <g id="Symbols" stroke="none" stroke-width="1" fill="none" fill-rule="evenodd">
        <g id="icon-trip-checked">
            <g id="Group-Copy" transform="translate(5.000000, 5.000000)">
                <path d="M1.92,5.02394133 L1.92,5.02394133 L1.92,18.2332015 C1.92,18.2311968 1.91732803,18.2285714 1.91408142,18.2285714 L14.0859186,18.2285714 C14.0807477,18.2285714 14.08,18.2293053 14.08,18.2332015 L14.08,5.02394133 C14.08,5.02594607 14.082672,5.02857143 14.0859186,5.02857143 L1.91408142,5.02857143 C1.91925234,5.02857143 1.92,5.02783752 1.92,5.02394133 L1.92,5.02394133 Z M0,5.02394133 C0,3.98504722 0.860229492,3.14285714 1.91408142,3.14285714 L14.0859186,3.14285714 C15.1430366,3.14285714 16,3.98447292 16,5.02394133 L16,18.2332015 C16,19.2720956 15.1397705,20.1142857 14.0859186,20.1142857 L1.91408142,20.1142857 C0.856963444,20.1142857 0,19.2726699 0,18.2332015 L0,5.02394133 L0,5.02394133 Z" id="Rectangle-9" fill="#000000"></path>
                <rect id="Rectangle-9-Copy" fill="#000000" x="2.56" y="18.8571429" width="3.15392" height="2.71417771" rx="1"></rect>
                <rect id="Rectangle-9-Copy-2" fill="#000000" x="10.24" y="18.8571429" width="3.15392" height="2.71417771" rx="1"></rect>
                <polygon id="Line" fill="#000000" points="0.96 6.91428571 14.72 6.91428571 15.36 6.91428571 15.36 5.65714286 14.72 5.65714286 0.96 5.65714286 0.32 5.65714286 0.32 6.91428571"></polygon>
                <g id="Rectangle-11" transform="translate(3.840000, 0.000000)">
                    <mask id="mask-2" fill="white">
                        <use xlink:href="#path-1"></use>
                    </mask>
                    <g id="Mask"></g>
                    <rect fill="#000000" mask="url(#mask-2)" x="-1.92" y="-5.02857143" width="12.8" height="8.17142857"></rect>
                </g>
            </g>
            <polygon id="Path-1110" fill="#0EB78C" points="20.6236564 28.092634 21.7180014 29.5416345 23.0035829 28.2649749 30 21.3171124 27.7705539 19 22 25 20.5304069 22.6462721 18 24.6187028"></polygon>
        </g>
    </g>
</svg>