<?xml version="1.0" encoding="UTF-8" standalone="no"?>
<svg width="32px" height="20px" viewBox="0 0 32 20" version="1.1" xmlns="http://www.w3.org/2000/svg" xmlns:xlink="http://www.w3.org/1999/xlink">
    <!-- Generator: Sketch 3.7.2 (28276) - http://www.bohemiancoding.com/sketch -->
    <title>icon-arrowlist</title>
    <desc>Created with Sketch.</desc>
    <defs></defs>
    <g id="Symbols" stroke="none" stroke-width="1" fill="none" fill-rule="evenodd">
        <g id="icon-arrowlist" fill="#979797">
            <g id="Group-3" transform="translate(3.000000, 1.000000)">
                <path d="M0.904357003,9.82179107 L24.9602533,9.82179107 C25.4597159,9.82179107 25.8646103,9.41396925 25.8646103,8.91089554 C25.8646103,8.40782182 25.4597159,8 24.9602533,8 L0.904357003,8 C0.404894422,8 0,8.40782182 0,8.91089554 C0,9.41396925 0.404894422,9.82179107 0.904357003,9.82179107 L0.904357003,9.82179107 Z" id="Line"></path>
                <path d="M16.2703636,1.55854472 L23.9218861,9.12598455 C24.2795728,9.47974065 24.8563111,9.47655425 25.2100672,9.11886753 C25.5638233,8.76118081 25.5606369,8.18444246 25.2029502,7.83068637 L17.5514277,0.263246531 C17.193741,-0.090509562 16.6170026,-0.0873231623 16.2632465,0.270363554 C15.9094904,0.628050271 15.9126768,1.20478862 16.2703636,1.55854472 L16.2703636,1.55854472 Z" id="Line"></path>
                <path d="M16.2768331,9.55854472 L24.1114481,17.1259846 C24.4776939,17.4797406 25.068233,17.4765542 25.4304541,17.1188675 C25.7926752,16.7611808 25.7894125,16.1844425 25.4231668,15.8306864 L17.5885517,8.26324653 C17.2223059,7.90949044 16.6317668,7.91267684 16.2695457,8.27036355 C15.9073246,8.62805027 15.9105873,9.20478862 16.2768331,9.55854472 L16.2768331,9.55854472 Z" id="Line" transform="translate(20.850000, 12.694616) scale(1, -1) translate(-20.850000, -12.694616) "></path>
            </g>
        </g>
    </g>
</svg>