<?xml version="1.0" encoding="UTF-8" standalone="no"?>
<svg width="32px" height="32px" viewBox="0 0 32 32" version="1.1" xmlns="http://www.w3.org/2000/svg" xmlns:xlink="http://www.w3.org/1999/xlink">
    <!-- Generator: Sketch 3.8.3 (29802) - http://www.bohemiancoding.com/sketch -->
    <title>icon-trip</title>
    <desc>Created with Sketch.</desc>
    <defs>
        <path d="M1.6,2.39410715 L1.6,2.39410715 L1.6,19.2058928 C1.6,19.6445457 1.95585012,20 2.39626779,20 L7.66133221,20 C8.09949457,20 8.4576,19.6425774 8.4576,19.2058928 L8.4576,2.39410715 C8.4576,1.95545428 8.10174988,1.6 7.66133221,1.6 L2.39626779,1.6 C1.95810543,1.6 1.6,1.95742258 1.6,2.39410715 L1.6,2.39410715 Z M0,2.39410715 C0,1.07187828 1.07633938,0 2.39626779,0 L7.66133221,0 C8.98475437,0 10.0576,1.07114736 10.0576,2.39410715 L10.0576,19.2058928 C10.0576,20.5281217 8.98126062,21.6 7.66133221,21.6 L2.39626779,21.6 C1.07284563,21.6 0,20.5288526 0,19.2058928 L0,2.39410715 L0,2.39410715 Z" id="path-1"></path>
    </defs>
    <g id="Symbols" stroke="none" stroke-width="1" fill="none" fill-rule="evenodd">
        <g id="icon-trip">
            <g id="Group" transform="translate(6.000000, 2.000000)">
                <path d="M2.4,6.39410715 L2.4,6.39410715 L2.4,23.2058928 C2.4,23.2033414 2.39666003,23.2 2.39260178,23.2 L17.6073982,23.2 C17.6009346,23.2 17.6,23.2009341 17.6,23.2058928 L17.6,6.39410715 C17.6,6.39665864 17.60334,6.4 17.6073982,6.4 L2.39260178,6.4 C2.39906542,6.4 2.4,6.39906593 2.4,6.39410715 L2.4,6.39410715 Z M0,6.39410715 C0,5.07187828 1.07528687,4 2.39260178,4 L17.6073982,4 C18.9287957,4 20,5.07114736 20,6.39410715 L20,23.2058928 C20,24.5281217 18.9247131,25.6 17.6073982,25.6 L2.39260178,25.6 C1.0712043,25.6 0,24.5288526 0,23.2058928 L0,6.39410715 L0,6.39410715 Z" id="Rectangle-9" fill="#000000"></path>
                <rect id="Rectangle-9-Copy" fill="#000000" x="3.2" y="24" width="3.9424" height="3.454408" rx="1"></rect>
                <rect id="Rectangle-9-Copy-2" fill="#000000" x="12.8" y="24" width="3.9424" height="3.454408" rx="1"></rect>
                <polygon id="Line" fill="#000000" points="1.2 8.8 18.4 8.8 19.2 8.8 19.2 7.2 18.4 7.2 1.2 7.2 0.4 7.2 0.4 8.8"></polygon>
                <g id="Rectangle-11" transform="translate(4.800000, 0.000000)">
                    <mask id="mask-2" fill="white">
                        <use xlink:href="#path-1"></use>
                    </mask>
                    <g id="Mask"></g>
                    <rect fill="#000000" mask="url(#mask-2)" x="-2.4" y="-6.4" width="16" height="10.4"></rect>
                </g>
            </g>
        </g>
    </g>
</svg>