<?xml version="1.0" encoding="UTF-8" standalone="no"?>
<svg width="32px" height="32px" viewBox="0 0 32 32" version="1.1" xmlns="http://www.w3.org/2000/svg" xmlns:xlink="http://www.w3.org/1999/xlink">
    <!-- Generator: Sketch 3.8.2 (29753) - http://www.bohemiancoding.com/sketch -->
    <title>icon-room</title>
    <desc>Created with Sketch.</desc>
    <defs></defs>
    <g id="Symbols" stroke="none" stroke-width="1" fill="none" fill-rule="evenodd">
        <g id="icon-room" fill="#000000">
            <path d="M28.0376453,15.9933703 L27.572106,15.9933703 L27.572106,9.810382 C27.572106,9.30480907 27.1913098,8.8934579 26.7231009,8.8934579 L24.570093,8.8934579 C24.3971159,8.8934579 24.2358439,8.84435017 24.1038008,8.75190339 C22.5389974,7.65489296 19.7515117,7 16.6470951,7 C13.5430208,7 10.7554667,7.65489296 9.19045796,8.75190339 C9.05834638,8.84435017 8.89707443,8.8934579 8.72437107,8.8934579 L6.57108936,8.8934579 C6.10315429,8.8934579 5.72242653,9.30480907 5.72242653,9.810382 L5.72242653,15.9933703 L5.25688726,15.9933703 C4.54724962,15.9933703 3.96992889,16.6170533 3.96992889,17.383474 L3.96992889,18.330203 C3.96992889,18.9418308 4.33730858,19.4621213 4.84617771,19.6476065 L4.84617771,23.5370273 C4.84617771,24.1482854 5.2135574,24.6685758 5.72242653,24.8543569 L5.72242653,25.4301154 C5.72242653,25.6754322 5.90608215,25.8738599 6.13313608,25.8738599 C6.35984775,25.8738599 6.54384563,25.6754322 6.54384563,25.4301154 L6.54384563,24.927131 L26.7506869,24.927131 L26.7506869,25.4301154 C26.7506869,25.6754322 26.9346163,25.8738599 27.1613965,25.8738599 C27.3881081,25.8738599 27.572106,25.6754322 27.572106,25.4301154 L27.572106,24.8543569 C28.0806329,24.6685758 28.4483548,24.1482854 28.4483548,23.5370273 L28.4483548,19.6476065 C28.9568817,19.4621213 29.3242614,18.9418308 29.3242614,18.330203 L29.3242614,17.383474 C29.3242614,16.6170533 28.7470091,15.9933703 28.0376453,15.9933703 L28.0376453,15.9933703 Z M6.54384563,9.810382 C6.54384563,9.79418533 6.55582466,9.78094695 6.57108936,9.78094695 L8.72437107,9.78094695 C9.05622438,9.78094695 9.37199158,9.68243567 9.6375153,9.49635879 C11.0532996,8.50399812 13.7392716,7.88748905 16.6470951,7.88748905 C19.555261,7.88748905 22.2411645,8.50399812 23.6567434,9.49635879 C23.9221987,9.68243567 24.2380344,9.78094695 24.570093,9.78094695 L26.7231009,9.78094695 C26.7383656,9.78094695 26.7506869,9.79418533 26.7506869,9.810382 L26.7506869,15.9933703 L25.5634625,15.9933703 C25.7257612,15.709078 25.8196084,15.3747905 25.8196084,15.0168365 L25.8196084,13.1237484 C25.8196084,12.0961101 25.0458316,11.2600954 24.0946967,11.2600954 L18.8375461,11.2600954 C17.8864797,11.2600954 17.1126344,12.0961101 17.1126344,13.1237484 L17.1126344,15.0168365 C17.1126344,15.3747905 17.2064816,15.709078 17.3690541,15.9933703 L15.92541,15.9933703 C16.0877087,15.709078 16.1815559,15.3747905 16.1815559,15.0168365 L16.1815559,13.1237484 C16.1815559,12.0961101 15.4077791,11.2600954 14.4566442,11.2600954 L9.19949357,11.2600954 C8.24842716,11.2600954 7.47458192,12.0961101 7.47458192,13.1237484 L7.47458192,15.0168365 C7.47458192,15.3747905 7.56870285,15.709078 7.73100158,15.9933703 L6.54384563,15.9933703 L6.54384563,9.810382 Z M17.9340535,15.0168365 L17.9340535,13.1237484 C17.9340535,12.5854863 18.3394238,12.1475844 18.8375461,12.1475844 L24.0946967,12.1475844 C24.592819,12.1475844 24.9981893,12.5854863 24.9981893,13.1237484 L24.9981893,15.0168365 C24.9981893,15.5553945 24.592819,15.9933703 24.0946967,15.9933703 L18.8375461,15.9933703 C18.3394238,15.9933703 17.9340535,15.5553945 17.9340535,15.0168365 L17.9340535,15.0168365 Z M8.29600101,15.0168365 L8.29600101,13.1237484 C8.29600101,12.5854863 8.70137134,12.1475844 9.19949357,12.1475844 L14.4566442,12.1475844 C14.9548349,12.1475844 15.3601368,12.5854863 15.3601368,13.1237484 L15.3601368,15.0168365 C15.3601368,15.5553945 14.9548349,15.9933703 14.4566442,15.9933703 L9.19949357,15.9933703 C8.70137134,15.9933703 8.29600101,15.5553945 8.29600101,15.0168365 L8.29600101,15.0168365 Z M27.1613965,24.0396419 L6.13313608,24.0396419 C5.87644261,24.0396419 5.66759681,23.8140718 5.66759681,23.5370273 L5.66759681,19.7206764 L27.6269357,19.7206764 L27.6269357,23.5370273 C27.6269357,23.8140718 27.4180899,24.0396419 27.1613965,24.0396419 L27.1613965,24.0396419 Z M28.5028423,18.330203 C28.5028423,18.6075433 28.294065,18.8331874 28.0376453,18.8331874 L5.25688726,18.8331874 C5.00019379,18.8331874 4.79134799,18.6075433 4.79134799,18.330203 L4.79134799,17.383474 C4.79134799,17.1064295 5.00019379,16.8808594 5.25688726,16.8808594 L28.0376453,16.8808594 C28.294065,16.8808594 28.5028423,17.1064295 28.5028423,17.383474 L28.5028423,18.330203 Z" id="bed"></path>
        </g>
    </g>
</svg>