<?xml version="1.0" encoding="UTF-8" standalone="no"?>
<svg width="32px" height="32px" viewBox="0 0 32 32" version="1.1" xmlns="http://www.w3.org/2000/svg" xmlns:xlink="http://www.w3.org/1999/xlink">
    <!-- Generator: Sketch 3.7.2 (28276) - http://www.bohemiancoding.com/sketch -->
    <title>icon-pencil</title>
    <desc>Created with Sketch.</desc>
    <defs></defs>
    <g id="Symbols" stroke="none" stroke-width="1" fill="none" fill-rule="evenodd">
        <g id="icon-pencil" fill="#000000">
            <g id="Group-7-Copy-3" transform="translate(7.000000, 6.000000)">
                <path d="M0.473034483,19.4242628 L2.07034483,13.0337111 L11.7931034,3.31160764 L16.5856897,8.10419385 L6.86358621,17.8269525 L0.473034483,19.4242628 L0.473034483,19.4242628 Z M3.17103448,13.6574352 L2.14765517,17.7496421 L6.23986207,16.7262628 L14.8625862,8.10419385 L11.7931034,5.03471109 L3.17103448,13.6574352 L3.17103448,13.6574352 Z" id="Fill-168"></path>
                <path d="M5.79893103,17.4646421 C5.38486207,15.8024697 4.09482759,14.5124352 2.43265517,14.0983663 L2.72813793,12.9157801 C4.82796552,13.4392628 6.45803448,15.0693318 6.98151724,17.1691594 L5.79893103,17.4646421" id="Fill-169"></path>
                <polyline id="Fill-170" points="5.67248276 15.0870214 4.81027586 14.2248145 13.3275172 5.70757316 14.1897241 6.56978006 5.67248276 15.0870214"></polyline>
                <path d="M1.31034483,18.5869525 L3.21165517,18.1119525 C3.03606897,17.4102628 2.48703448,16.8612283 1.78534483,16.6856421 L1.31034483,18.5869525" id="Fill-171"></path>
                <path d="M17.0344828,7.65540075 L12.2418966,2.86281454 L14.151069,0.953642125 L14.4491724,0.993607642 C16.7632414,1.30219385 18.5951034,3.13405592 18.9036897,5.44812488 L18.9436552,5.74622833 L17.0344828,7.65540075 L17.0344828,7.65540075 Z M13.965,2.86281454 L17.0344828,5.9322973 L17.6464138,5.32036626 C17.324069,3.78333178 16.1139655,2.57322833 14.576931,2.2508835 L13.965,2.86281454 L13.965,2.86281454 Z" id="Fill-172"></path>
            </g>
        </g>
    </g>
</svg>