<?xml version="1.0" encoding="UTF-8" standalone="no"?>
<svg width="32px" height="32px" viewBox="0 0 32 32" version="1.1" xmlns="http://www.w3.org/2000/svg" xmlns:xlink="http://www.w3.org/1999/xlink">
    <!-- Generator: Sketch 3.8.3 (29802) - http://www.bohemiancoding.com/sketch -->
    <title>icon-train</title>
    <desc>Created with Sketch.</desc>
    <defs></defs>
    <g id="Symbols" stroke="none" stroke-width="1" fill="none" fill-rule="evenodd">
        <g id="icon-train" fill="#000000">
            <path d="M16.5,3 C10.725,3 6,3.65882732 6,8.27061856 L6,20.7883376 C6,23.2918814 8.1,25.4001289 10.59375,25.4001289 L8.625,27.3766108 L8.625,28.0354381 L24.375,28.0354381 L24.375,27.3766108 L22.40625,25.4001289 C24.9,25.4001289 27,23.2918814 27,20.7883376 L27,8.27061856 C27,3.65882732 22.275,3 16.5,3 L16.5,3 Z M10.59375,22.7648196 C9.54375,22.7648196 8.625,21.8424613 8.625,20.7883376 C8.625,19.7342139 9.54375,18.8118557 10.59375,18.8118557 C11.64375,18.8118557 12.5625,19.7342139 12.5625,20.7883376 C12.5625,21.8424613 11.64375,22.7648196 10.59375,22.7648196 L10.59375,22.7648196 Z M15.1875,14.8588918 L8.625,14.8588918 L8.625,8.27061856 L15.1875,8.27061856 L15.1875,14.8588918 L15.1875,14.8588918 Z M22.40625,22.7648196 C21.35625,22.7648196 20.4375,21.8424613 20.4375,20.7883376 C20.4375,19.7342139 21.35625,18.8118557 22.40625,18.8118557 C23.45625,18.8118557 24.375,19.7342139 24.375,20.7883376 C24.375,21.8424613 23.45625,22.7648196 22.40625,22.7648196 L22.40625,22.7648196 Z M24.375,14.8588918 L17.8125,14.8588918 L17.8125,8.27061856 L24.375,8.27061856 L24.375,14.8588918 L24.375,14.8588918 Z" id="Shape"></path>
        </g>
    </g>
</svg>