<?xml version="1.0" encoding="UTF-8" standalone="no"?>
<svg width="32px" height="32px" viewBox="0 0 32 32" version="1.1" xmlns="http://www.w3.org/2000/svg" xmlns:xlink="http://www.w3.org/1999/xlink">
    <!-- Generator: Sketch 3.8.1 (29687) - http://www.bohemiancoding.com/sketch -->
    <title>icon-plane-checked</title>
    <desc>Created with Sketch.</desc>
    <defs></defs>
    <g id="Symbols" stroke="none" stroke-width="1" fill="none" fill-rule="evenodd">
        <g id="icon-plane-checked">
            <g id="Group-3" transform="translate(4.000000, 5.000000)" fill="#FFFFFF">
                <path d="M21,9.977625 C21,9.1363125 20.2663125,8.397375 19.4263125,8.397375 L13.647375,8.397375 L8.397375,0 L6.3013125,0 L8.9263125,8.397375 L3.147375,8.397375 L1.5736875,6.3013125 L0,6.3013125 L1.0513125,9.977625 L0,13.647375 L1.5736875,13.647375 L3.147375,11.5513125 L8.9263125,11.5513125 L6.3013125,19.9486875 L8.397375,19.9486875 L13.647375,11.5513125 L19.4263125,11.5513125 C20.2663125,11.5513125 21,10.812375 21,9.977625 L21,9.977625 Z" id="Fill-1"></path>
            </g>
            <polygon id="Path-1110" fill="#0EB78C" points="20.6236564 26.092634 21.7180014 27.5416345 23.0035829 26.2649749 30 19.3171124 27.7705539 17 22 23 20.5304069 20.6462721 18 22.6187028"></polygon>
        </g>
    </g>
</svg>