<?xml version="1.0" encoding="UTF-8" standalone="no"?>
<svg width="32px" height="32px" viewBox="0 0 32 32" version="1.1" xmlns="http://www.w3.org/2000/svg" xmlns:xlink="http://www.w3.org/1999/xlink">
    <!-- Generator: Sketch 39.1 (31720) - http://www.bohemiancoding.com/sketch -->
    <title>icon-departure</title>
    <desc>Created with Sketch.</desc>
    <defs>
        <path d="M17.6,8.6 C17.6,4.06418676 13.7429613,0.4 9,0.4 C4.2570387,0.4 0.4,4.06418676 0.4,8.6 C0.4,12.3619255 7.15981712,21.6 9,21.6 C10.8401829,21.6 17.6,12.3619255 17.6,8.6 Z M5.13758365,16.019697 C2.9748276,13.0640399 1.6,10.3069203 1.6,8.6 C1.6,4.74108504 4.9064053,1.6 9,1.6 C13.0935947,1.6 16.4,4.74108504 16.4,8.6 C16.4,10.3069203 15.0251724,13.0640399 12.8624163,16.019697 C11.2327844,18.2467781 9.18599387,20.4 9,20.4 C8.81400613,20.4 6.76721558,18.2467781 5.13758365,16.019697 Z" id="path-1"></path>
    </defs>
    <g id="Symbols" stroke="none" stroke-width="1" fill="none" fill-rule="evenodd">
        <g id="icon-departure">
            <ellipse id="Oval-40" stroke="#363636" cx="14" cy="12.6" rx="2.10526316" ry="2"></ellipse>
            <g id="Rectangle" transform="translate(5.000000, 4.000000)">
                <mask id="mask-2" fill="white">
                    <use xlink:href="#path-1"></use>
                </mask>
                <use id="Mask" fill="#363636" xlink:href="#path-1"></use>
                <polygon fill="#FFFFFF" mask="url(#mask-2)" points="11 8.99902344 27 11 27 27 11 28"></polygon>
            </g>
            <g id="Group-3" transform="translate(16.000000, 15.000000)" fill="#000000">
                <path d="M0.416590584,6.00220566 L11.4979001,6.00220566 C11.7279768,6.00220566 11.9144907,5.75298121 11.9144907,5.44554727 C11.9144907,5.13811334 11.7279768,4.88888889 11.4979001,4.88888889 L0.416590584,4.88888889 C0.186513958,4.88888889 0,5.13811334 0,5.44554727 C0,5.75298121 0.186513958,6.00220566 0.416590584,6.00220566 L0.416590584,6.00220566 Z" id="Line"></path>
                <path d="M5.85496646,0.952443993 L10.687507,5.57699056 C10.9134144,5.79317484 11.2776702,5.7912276 11.5010951,5.57264127 C11.72452,5.35405494 11.7225075,5.00160373 11.4966001,4.78541945 L6.6640596,0.16087288 C6.4381522,-0.055311399 6.07389639,-0.0533641547 5.85047149,0.165222172 C5.62704659,0.383808499 5.62905906,0.736259713 5.85496646,0.952443993 L5.85496646,0.952443993 Z" id="Line"></path>
                <path d="M5.85905246,5.84133288 L10.8072304,10.4658794 C11.0385435,10.6820637 11.4115156,10.6801165 11.6402868,10.4615302 C11.869058,10.2429438 11.8669974,9.89049262 11.6356843,9.67430834 L6.68750631,5.04976177 C6.4561932,4.83357749 6.08322115,4.83552473 5.85444994,5.05411106 C5.62567872,5.27269739 5.62773934,5.6251486 5.85905246,5.84133288 L5.85905246,5.84133288 Z" id="Line" transform="translate(8.747368, 7.757821) scale(1, -1) translate(-8.747368, -7.757821) "></path>
            </g>
        </g>
    </g>
</svg>