<?xml version="1.0" encoding="UTF-8"?>
<svg width="32px" height="32px" viewBox="0 0 32 32" version="1.1" xmlns="http://www.w3.org/2000/svg" xmlns:xlink="http://www.w3.org/1999/xlink">
    <!-- Generator: Sketch 40.2 (33826) - http://www.bohemiancoding.com/sketch -->
    <title>icon-walk</title>
    <desc>Created with Sketch.</desc>
    <defs></defs>
    <g id="Symbols" stroke="none" stroke-width="1" fill="none" fill-rule="evenodd">
        <g id="icon-walk" fill="#010002">
            <path d="M15.4194938,9.51405368 C15.4858205,9.48093059 15.5400872,9.46521239 15.5780592,9.45778812 C15.7550168,9.45228309 15.9340306,9.45624799 16.1149633,9.47048373 C18.0228605,9.63380787 18.6315113,11.0675564 19.0353006,12.0164188 C19.1274177,12.2365391 19.2195347,12.4524208 19.3249325,12.6440017 L21.8445888,17.1995583 C22.0847713,17.6352777 21.9398141,18.2004132 21.5139845,18.4518984 C21.0839165,18.7036663 20.5425168,18.5866832 20.2788811,18.1650922 L18.4031966,15.1712873 L17.9694552,17.5185773 C17.9140719,17.8229027 17.9841487,18.3965152 18.1129996,18.6745618 L21.4049134,25.8178735 C21.5719109,26.1835162 21.7649047,26.5977604 21.4780984,27.0470431 C21.3082753,27.3129393 21.012992,27.4742855 20.6996244,27.4742855 C20.1466394,27.4742855 19.8979798,27.0543898 19.6959439,26.7192645 L15.6283817,19.8831039 L14.5252373,22.1201925 C14.2678182,22.6454858 13.7555229,23.3889215 13.3621886,23.8130556 L11.1445972,26.203861 C10.8549653,26.5144029 10.6289112,26.7571286 10.2044945,26.7571286 C9.85128483,26.7571286 9.52915763,26.5533973 9.37346283,26.2346609 C9.11604364,25.694674 9.42912866,25.3038829 9.70717529,24.959998 L11.8970751,22.2459351 C12.1301934,21.9548904 12.4404528,21.3606505 12.5444377,21.0009418 L13.3579501,18.1594409 C13.4749332,17.7423709 13.6125436,17.0003481 13.647582,16.5697149 L13.9178015,13.2817248 C13.9280065,13.2060794 13.9384649,13.1319275 13.949163,13.0592396 C13.9129227,13.0980403 13.8768827,13.137121 13.8410602,13.1764763 C12.6433292,14.492327 11.917658,15.8591578 11.8597816,17.1759887 C11.8355314,17.7277408 11.3685892,18.1553655 10.8168371,18.1311153 C10.265085,18.1068651 9.83746028,17.639923 9.86171049,17.0881709 C9.94378297,15.2208201 10.8787697,13.459735 12.3620213,11.8302059 C12.8888092,11.2514665 13.4505709,10.7293849 14.0128516,10.2702666 C14.3534488,9.99215933 14.6231095,9.79370767 14.7872929,9.68280453 C14.9807281,9.55214237 15.2034528,9.49821459 15.4194938,9.51405368 Z M19.0638399,6.7770483 C19.2542906,7.93218511 18.4698826,9.02148364 17.3167238,9.21023887 C16.1607393,9.40040694 15.072571,8.61543383 14.8852286,7.46170987 C14.6950605,6.30657306 15.4763603,5.21727454 16.6292365,5.02851931 C17.7849385,4.83806867 18.8736719,5.62162893 19.0638399,6.7770483 Z" id="Combined-Shape"></path>
        </g>
    </g>
</svg>