<?xml version="1.0" encoding="UTF-8" standalone="no"?>
<svg width="32px" height="32px" viewBox="0 0 32 32" version="1.1" xmlns="http://www.w3.org/2000/svg" xmlns:xlink="http://www.w3.org/1999/xlink">
    <!-- Generator: Sketch 3.8.3 (29802) - http://www.bohemiancoding.com/sketch -->
    <title>icon-hotel-checked</title>
    <desc>Created with Sketch.</desc>
    <defs></defs>
    <g id="Symbols" stroke="none" stroke-width="1" fill="none" fill-rule="evenodd">
        <g id="icon-hotel-checked">
            <g id="Group-4" transform="translate(4.000000, 8.000000)" fill="#000000">
                <path d="M19.6915902,10.9222658 C19.6915902,6.86169378 16.1697407,3.51826665 11.6230865,3.03020283 C11.9528149,2.71031535 12.1620311,2.25799038 12.1620311,1.75158907 C12.1620311,0.784272243 11.4084718,0 10.4783517,0 C9.54817864,0 8.79440766,0.784272243 8.79440766,1.75158907 C8.79440766,2.25799038 9.00362383,2.71031535 9.33340525,3.03020283 C4.78690983,3.51826665 1.26506024,6.86169378 1.26506024,10.9222658 C1.26506024,10.9231469 19.6915902,10.9231469 19.6915902,10.9222658 L19.6915902,10.9222658 Z M7.79087927,5.47233915 C6.4960466,5.90384858 5.39910396,6.70855089 4.70154031,7.73825926 C4.60087521,7.8877677 4.44045674,7.96689979 4.27792124,7.96689979 C4.17476862,7.96689979 4.07055748,7.93529101 3.97978952,7.86860419 C3.74617451,7.69739913 3.69039059,7.36077111 3.85472557,7.11808836 C4.68148139,5.89757088 5.9672108,4.94831621 7.47538785,4.44692604 C7.74869731,4.35545882 8.03899599,4.51273178 8.12621791,4.79539359 C8.21328105,5.07888141 8.06318313,5.38197328 7.79087927,5.47233915 L7.79087927,5.47233915 Z" id="Fill-1"></path>
                <path d="M19.9644514,11.5769231 L1.03554858,11.5769231 C0.463525219,11.5769231 0,12.0595903 0,12.6545953 C0,13.2493801 0.463525219,13.7320473 1.03554858,13.7320473 L19.9644514,13.7320473 C20.5364748,13.7320473 21,13.2493801 21,12.6545953 C21,12.0595903 20.5364748,11.5769231 19.9644514,11.5769231 L19.9644514,11.5769231 Z" id="Fill-2"></path>
            </g>
            <polygon id="Path-1110" fill="#0EB78C" points="20.6236564 28.092634 21.7180014 29.5416345 23.0035829 28.2649749 30 21.3171124 27.7705539 19 22 25 20.5304069 22.6462721 18 24.6187028"></polygon>
        </g>
    </g>
</svg>