<?xml version="1.0" encoding="UTF-8" standalone="no"?>
<svg width="32px" height="32px" viewBox="0 0 32 32" version="1.1" xmlns="http://www.w3.org/2000/svg" xmlns:xlink="http://www.w3.org/1999/xlink">
    <!-- Generator: Sketch 3.8.3 (29802) - http://www.bohemiancoding.com/sketch -->
    <title>icon-train-checked</title>
    <desc>Created with Sketch.</desc>
    <defs></defs>
    <g id="Symbols" stroke="none" stroke-width="1" fill="none" fill-rule="evenodd">
        <g id="icon-train-checked">
            <path d="M14.5,5 C9.825,5 6,5.5333364 6,9.26669121 L6,19.4000828 C6,21.4267612 7.7,23.1334377 9.71875,23.1334377 L8.125,24.7334469 L8.125,25.2667833 L20.875,25.2667833 L20.875,24.7334469 L19.28125,23.1334377 C21.3,23.1334377 23,21.4267612 23,19.4000828 L23,9.26669121 C23,5.5333364 19.175,5 14.5,5 L14.5,5 Z M9.71875,21.000092 C8.86875,21.000092 8.125,20.2534211 8.125,19.4000828 C8.125,18.5467446 8.86875,17.8000736 9.71875,17.8000736 C10.56875,17.8000736 11.3125,18.5467446 11.3125,19.4000828 C11.3125,20.2534211 10.56875,21.000092 9.71875,21.000092 L9.71875,21.000092 Z M13.4375,14.6000552 L8.125,14.6000552 L8.125,9.26669121 L13.4375,9.26669121 L13.4375,14.6000552 L13.4375,14.6000552 Z M19.28125,21.000092 C18.43125,21.000092 17.6875,20.2534211 17.6875,19.4000828 C17.6875,18.5467446 18.43125,17.8000736 19.28125,17.8000736 C20.13125,17.8000736 20.875,18.5467446 20.875,19.4000828 C20.875,20.2534211 20.13125,21.000092 19.28125,21.000092 L19.28125,21.000092 Z M20.875,14.6000552 L15.5625,14.6000552 L15.5625,9.26669121 L20.875,9.26669121 L20.875,14.6000552 L20.875,14.6000552 Z" id="Shape" fill="#000000"></path>
            <polygon id="Path-1110" fill="#0EB78C" points="20.6236564 28.092634 21.7180014 29.5416345 23.0035829 28.2649749 30 21.3171124 27.7705539 19 22 25 20.5304069 22.6462721 18 24.6187028"></polygon>
        </g>
    </g>
</svg>