<?xml version="1.0" encoding="UTF-8" standalone="no"?>
<svg width="32px" height="32px" viewBox="0 0 32 32" version="1.1" xmlns="http://www.w3.org/2000/svg" xmlns:xlink="http://www.w3.org/1999/xlink">
    <!-- Generator: Sketch 39.1 (31720) - http://www.bohemiancoding.com/sketch -->
    <title>icon-return</title>
    <desc>Created with Sketch.</desc>
    <defs></defs>
    <g id="Symbols" stroke="none" stroke-width="1" fill="none" fill-rule="evenodd">
        <g id="icon-return">
            <circle id="Oval-36-Copy-3" stroke="#000000" stroke-width="1.2" cx="16" cy="16" r="10"></circle>
            <g id="Group-3" transform="translate(9.000000, 11.000000)" fill="#000000">
                <path d="M0.486961463,5.4565506 L13.4401364,5.4565506 C13.7090778,5.4565506 13.9270979,5.22998292 13.9270979,4.95049752 C13.9270979,4.67101212 13.7090778,4.44444444 13.4401364,4.44444444 L0.486961463,4.44444444 C0.218020073,4.44444444 0,4.67101212 0,4.95049752 C0,5.22998292 0.218020073,5.4565506 0.486961463,5.4565506 L0.486961463,5.4565506 Z" id="Line"></path>
                <path d="M8.76096499,0.865858175 L12.8810156,5.06999142 C13.0736161,5.26652258 13.3841675,5.26475236 13.5746516,5.06603752 C13.7651356,4.86732267 13.7634199,4.54691248 13.5708193,4.35038132 L9.45076876,0.146248073 C9.25816822,-0.05028309 8.9476168,-0.0485128679 8.75713275,0.150201975 C8.5666487,0.348916817 8.56836445,0.669327012 8.76096499,0.865858175 L8.76096499,0.865858175 Z" id="Line"></path>
                <path d="M8.76444857,5.31030262 L12.9830875,9.51443586 C13.1802967,9.71096703 13.4982793,9.7091968 13.6933214,9.51048196 C13.8883636,9.31176712 13.8866067,8.99135692 13.6893975,8.79482576 L9.47075859,4.59069252 C9.27354933,4.39416135 8.95556675,4.39593158 8.76052463,4.59464642 C8.5654825,4.79336126 8.56723931,5.11377146 8.76444857,5.31030262 L8.76444857,5.31030262 Z" id="Line" transform="translate(11.226923, 7.052564) scale(1, -1) translate(-11.226923, -7.052564) "></path>
            </g>
        </g>
    </g>
</svg>