<?xml version="1.0" encoding="UTF-8" standalone="no"?>
<svg width="32px" height="32px" viewBox="0 0 32 32" version="1.1" xmlns="http://www.w3.org/2000/svg" xmlns:xlink="http://www.w3.org/1999/xlink">
    <!-- Generator: Sketch 3.8.1 (29687) - http://www.bohemiancoding.com/sketch -->
    <title>icon-calendar-checked</title>
    <desc>Created with Sketch.</desc>
    <defs></defs>
    <g id="Symbols" stroke="none" stroke-width="1" fill="none" fill-rule="evenodd">
        <g id="icon-calendar-checked">
            <path d="M7,9.09491805 L7,9.09491805 L7,25.00032 C7,25.5537817 7.44528406,26 7.99456145,26 L25.0054385,26 C25.5487499,26 26,25.5490517 26,25.00032 L26,9.09491805 C26,8.54254832 25.5514444,8.0952381 24.9956891,8.0952381 L24.2691284,8.0952381 L9.49940186,8.0952381 L7.99604492,8.0952381 C7.44851952,8.0952381 7,8.54399123 7,9.09491805 L7,9.09491805 Z M23.85,7.0952381 L24.2691284,7.0952381 L24.9956891,7.0952381 C26.1026395,7.0952381 27,7.98917327 27,9.09491805 L27,25.00032 C27,26.1047128 26.0976563,27 25.0054385,27 L7.99456145,27 C6.89299558,27 6,26.1060648 6,25.00032 L6,9.09491805 C6,7.99052531 6.8974152,7.0952381 7.99604492,7.0952381 L9.15,7.0952381 L9.15,8.0952381 L12.3,8.0952381 L12.3,7.0952381 L20.7,7.0952381 L20.7,8.0952381 L23.85,8.0952381 L23.85,7.0952381 Z" id="Combined-Shape" fill="#FFFFFF"></path>
            <path d="M22.275,5.52380952 L22.275,9.81802046" id="Line-Copy-4" stroke="#FFFFFF" stroke-linecap="round" stroke-linejoin="round"></path>
            <path d="M10.725,5.52380952 L10.725,9.81802046" id="Line" stroke="#FFFFFF" stroke-linecap="round" stroke-linejoin="round"></path>
            <polygon id="Path-1110" fill="#0EB78C" points="13.6236564 21.092634 14.7180014 22.5416345 16.0035829 21.2649749 23 14.3171124 20.7705539 12 15 18 13.5304069 15.6462721 11 17.6187028"></polygon>
        </g>
    </g>
</svg>